<svg width="20" height="20" fill="none" xmlns="http://www.w3.org/2000/svg">
    <path fill-rule="evenodd" clip-rule="evenodd" d="m9.284 18.273-3.066 1.5c-1.148.56-2.517.048-3.058-1.145a2.471 2.471 0 0 1-.2-1.316l.424-3.493a1.79 1.79 0 0 0-.442-1.414L.622 9.838a2.454 2.454 0 0 1 .103-3.376c.318-.31.714-.52 1.142-.605l3.329-.66a1.687 1.687 0 0 0 1.157-.874l1.633-3.085C8.598.082 9.995-.34 11.107.296c.382.218.696.545.907.942l1.632 3.085c.241.456.666.777 1.158.874l3.328.66c1.247.248 2.065 1.498 1.827 2.794a2.423 2.423 0 0 1-.582 1.187l-2.32 2.567a1.79 1.79 0 0 0-.442 1.414l.425 3.493c.159 1.309-.733 2.503-1.992 2.669a2.22 2.22 0 0 1-1.267-.209l-3.066-1.499a1.624 1.624 0 0 0-1.43 0z" fill="#CCC"/>
</svg>
